<svg width="165" height="42" viewBox="0 0 165 42" fill="none" xmlns="http://www.w3.org/2000/svg">
<path d="M20.7 10.2378C20.7 21.008 11.9472 29.7389 1.14999 29.7389C0.763947 29.7389 0.380514 29.7278 0 29.7058V32.0035C0.380833 32.0232 0.764247 32.0332 1.14999 32.0332C13.2174 32.0332 23 22.2751 23 10.2378C23 10.2377 23 10.2379 23 10.2378H20.7C20.7 10.2379 20.7 10.2377 20.7 10.2378Z" fill="white"/>
<path d="M19.55 10.2375C19.55 10.2374 19.55 10.2376 19.55 10.2375C19.55 20.3741 11.312 28.5918 1.14999 28.5918C0.763768 28.5918 0.380321 28.5799 0 28.5566V26.2572C0.379845 26.284 0.763328 26.2976 1.14999 26.2976C10.0418 26.2976 17.25 19.1074 17.25 10.2378C17.25 10.2377 17.25 10.2379 17.25 10.2378L19.55 10.2375Z" fill="white"/>
<path d="M0 25.107C0.379546 25.1358 0.763053 25.1504 1.14999 25.1504C9.40665 25.1504 16.1 18.4738 16.1 10.2378C16.1 10.2377 16.1 10.2379 16.1 10.2378L13.8 10.2375C13.8 10.2374 13.8 10.2376 13.8 10.2375C13.8 17.2064 8.1364 22.8562 1.14999 22.8562C0.762343 22.8562 0.378765 22.8388 0 22.8048V25.107Z" fill="white"/>
<path d="M0 21.6524C0.37824 21.6899 0.761872 21.7091 1.14999 21.7091C7.50127 21.7091 12.65 16.5732 12.65 10.2378C12.65 10.2377 12.65 10.2379 12.65 10.2378L10.35 10.2375C10.35 10.2374 10.35 10.2376 10.35 10.2375C10.35 15.3058 6.23101 19.4148 1.14999 19.4148C0.760537 19.4148 0.376732 19.3907 0 19.3438V21.6524Z" fill="white"/>
<path d="M0 18.1864C0.375592 18.24 0.759547 18.2677 1.14999 18.2677C5.59589 18.2677 9.2 14.6726 9.2 10.2378C9.2 10.2377 9.2 10.2379 9.2 10.2378L6.89999 10.2375C6.89999 10.2374 6.89999 10.2376 6.89999 10.2375C6.89999 13.4052 4.32563 15.9735 1.14999 15.9735C0.756161 15.9735 0.371575 15.934 0 15.8587V18.1864Z" fill="white"/>
<path d="M0 14.6818C0.367561 14.7761 0.752902 14.8263 1.14999 14.8263C3.6905 14.8263 5.74999 12.772 5.74999 10.2378C5.74999 10.2377 5.74999 10.2379 5.74999 10.2378L0 10.2375V14.6818Z" fill="white"/>
<path d="M23 17.4215C22.7657 18.1311 22.4976 18.8254 22.1976 19.5024C22.4678 19.5342 22.7353 19.5745 23 19.623V17.4215Z" fill="white"/>
<path d="M23 20.7915C22.5666 20.7037 22.1243 20.6403 21.6746 20.6026C21.278 21.3826 20.8379 22.137 20.3577 22.8625C20.4713 22.8584 20.5854 22.8563 20.7 22.8563C21.4942 22.8563 22.2649 22.9567 23 23.1454V20.7915Z" fill="white"/>
<path d="M11.5711 33.18H9.25674C9.21921 32.8028 9.2 32.4203 9.2 32.0333C9.2 31.9334 9.20128 31.8338 9.20382 31.7345C10.0255 31.428 10.825 31.076 11.5991 30.6816C11.5338 31.1227 11.5 31.574 11.5 32.0333C11.5 32.4216 11.5242 32.8043 11.5711 33.18Z" fill="white"/>
<path d="M23 24.3359C22.2712 24.1196 21.4992 24.0034 20.7 24.0034C20.2862 24.0034 19.8796 24.0345 19.4826 24.0946C17.6973 26.4412 15.4696 28.4345 12.9233 29.9508C12.7451 30.615 12.65 31.313 12.65 32.0333C12.65 32.4226 12.6778 32.8055 12.7315 33.18H15.0649C14.9896 32.8095 14.95 32.426 14.95 32.0333C14.95 28.8656 17.5244 26.2976 20.7 26.2976C21.5178 26.2976 22.2957 26.4679 23 26.7749V24.3359Z" fill="white"/>
<path d="M23 28.0586C22.3234 27.6682 21.5379 27.4448 20.7 27.4448C18.1595 27.4448 16.1 29.4991 16.1 32.0333C16.1 32.4292 16.1503 32.8135 16.2448 33.18H23V28.0586Z" fill="white"/>
<path d="M8.10153 33.18H5.79354C5.78186 33.0267 5.7725 32.8728 5.76549 32.7183C6.54206 32.5605 7.3044 32.3637 8.05036 32.13C8.05302 32.4836 8.07027 32.8338 8.10153 33.18Z" fill="white"/>
<path d="M4.64041 33.18C4.6343 33.0936 4.62888 33.0071 4.62414 32.9204C3.87194 33.034 3.10778 33.1114 2.33353 33.1505C2.33412 33.1604 2.33472 33.1702 2.33532 33.18H4.64041Z" fill="white"/>
<path d="M1.01379 33.18C0.674066 33.178 0.336084 33.1687 0 33.1522V33.18H1.01379Z" fill="white"/>
<path d="M36.696 13.848V19.288H44.024V23.288H36.696V28.84H46.264V33H31.256V9.688H46.264V13.848H36.696ZM49.0078 21.272H57.6478V25.272H49.0078V21.272ZM77.2805 26.968C77.4085 26.968 77.5365 26.9947 77.6645 27.048C77.7925 27.0907 77.9152 27.1707 78.0325 27.288L80.1765 29.544C79.2378 30.7707 78.0592 31.6987 76.6405 32.328C75.2325 32.9467 73.5632 33.256 71.6325 33.256C69.8618 33.256 68.2725 32.9573 66.8645 32.36C65.4672 31.752 64.2778 30.92 63.2965 29.864C62.3258 28.7973 61.5792 27.5387 61.0565 26.088C60.5338 24.6267 60.2725 23.0427 60.2725 21.336C60.2725 19.5973 60.5552 18.0027 61.1205 16.552C61.6858 15.0907 62.4805 13.832 63.5045 12.776C64.5285 11.72 65.7552 10.8987 67.1845 10.312C68.6138 9.72533 70.1872 9.432 71.9045 9.432C72.7792 9.432 73.6005 9.512 74.3685 9.672C75.1472 9.82133 75.8725 10.0347 76.5445 10.312C77.2165 10.5787 77.8352 10.904 78.4005 11.288C78.9658 11.672 79.4672 12.088 79.9045 12.536L78.0805 14.984C77.9632 15.1333 77.8245 15.272 77.6645 15.4C77.5045 15.5173 77.2805 15.576 76.9925 15.576C76.8005 15.576 76.6192 15.5333 76.4485 15.448C76.2778 15.3627 76.0965 15.2613 75.9045 15.144C75.7125 15.016 75.4992 14.8827 75.2645 14.744C75.0405 14.5947 74.7685 14.4613 74.4485 14.344C74.1392 14.216 73.7712 14.1093 73.3445 14.024C72.9285 13.9387 72.4378 13.896 71.8725 13.896C70.9765 13.896 70.1552 14.0613 69.4085 14.392C68.6725 14.7227 68.0325 15.208 67.4885 15.848C66.9552 16.4773 66.5392 17.256 66.2405 18.184C65.9525 19.1013 65.8085 20.152 65.8085 21.336C65.8085 22.5307 65.9685 23.592 66.2885 24.52C66.6192 25.448 67.0618 26.232 67.6165 26.872C68.1818 27.5013 68.8378 27.9813 69.5845 28.312C70.3312 28.6427 71.1312 28.808 71.9845 28.808C72.4752 28.808 72.9232 28.7867 73.3285 28.744C73.7338 28.6907 74.1125 28.6107 74.4645 28.504C74.8165 28.3867 75.1472 28.2373 75.4565 28.056C75.7658 27.864 76.0805 27.624 76.4005 27.336C76.5285 27.2293 76.6672 27.144 76.8165 27.08C76.9658 27.0053 77.1205 26.968 77.2805 26.968ZM104.886 21.336C104.886 23.0213 104.593 24.5893 104.006 26.04C103.43 27.4907 102.614 28.7547 101.558 29.832C100.502 30.8987 99.2273 31.736 97.734 32.344C96.2513 32.952 94.6033 33.256 92.79 33.256C90.9767 33.256 89.3233 32.952 87.83 32.344C86.3367 31.736 85.0567 30.8987 83.99 29.832C82.934 28.7547 82.1127 27.4907 81.526 26.04C80.95 24.5893 80.662 23.0213 80.662 21.336C80.662 19.6507 80.95 18.0827 81.526 16.632C82.1127 15.1813 82.934 13.9227 83.99 12.856C85.0567 11.7893 86.3367 10.952 87.83 10.344C89.3233 9.736 90.9767 9.432 92.79 9.432C94.6033 9.432 96.2513 9.74133 97.734 10.36C99.2273 10.968 100.502 11.8053 101.558 12.872C102.614 13.9387 103.43 15.1973 104.006 16.648C104.593 18.0987 104.886 19.6613 104.886 21.336ZM99.35 21.336C99.35 20.184 99.2007 19.1493 98.902 18.232C98.6033 17.304 98.1713 16.52 97.606 15.88C97.0513 15.24 96.3687 14.7493 95.558 14.408C94.7473 14.0667 93.8247 13.896 92.79 13.896C91.7447 13.896 90.8113 14.0667 89.99 14.408C89.1793 14.7493 88.4913 15.24 87.926 15.88C87.3713 16.52 86.9447 17.304 86.646 18.232C86.3473 19.1493 86.198 20.184 86.198 21.336C86.198 22.4987 86.3473 23.544 86.646 24.472C86.9447 25.3893 87.3713 26.168 87.926 26.808C88.4913 27.448 89.1793 27.9387 89.99 28.28C90.8113 28.6107 91.7447 28.776 92.79 28.776C93.8247 28.776 94.7473 28.6107 95.558 28.28C96.3687 27.9387 97.0513 27.448 97.606 26.808C98.1713 26.168 98.6033 25.3893 98.902 24.472C99.2007 23.544 99.35 22.4987 99.35 21.336ZM134.277 9.688V33H129.509V19.592C129.509 19.2827 129.514 18.9467 129.525 18.584C129.546 18.2213 129.578 17.8533 129.621 17.48L123.429 29.464C123.237 29.8373 122.975 30.12 122.645 30.312C122.325 30.504 121.957 30.6 121.541 30.6H120.805C120.389 30.6 120.015 30.504 119.685 30.312C119.365 30.12 119.109 29.8373 118.917 29.464L112.725 17.448C112.757 17.832 112.783 18.2107 112.805 18.584C112.826 18.9467 112.837 19.2827 112.837 19.592V33H108.069V9.688H112.197C112.431 9.688 112.634 9.69333 112.805 9.704C112.986 9.71467 113.146 9.74667 113.285 9.8C113.423 9.85333 113.546 9.93867 113.653 10.056C113.77 10.1627 113.882 10.3173 113.989 10.52L119.989 22.344C120.202 22.7493 120.405 23.1707 120.597 23.608C120.799 24.0453 120.991 24.4933 121.173 24.952C121.354 24.4827 121.541 24.024 121.733 23.576C121.935 23.128 122.149 22.7013 122.373 22.296L128.357 10.52C128.463 10.3173 128.57 10.1627 128.677 10.056C128.794 9.93867 128.922 9.85333 129.061 9.8C129.199 9.74667 129.354 9.71467 129.525 9.704C129.706 9.69333 129.914 9.688 130.149 9.688H134.277ZM164.995 9.688V33H160.227V19.592C160.227 19.2827 160.233 18.9467 160.243 18.584C160.265 18.2213 160.297 17.8533 160.339 17.48L154.147 29.464C153.955 29.8373 153.694 30.12 153.363 30.312C153.043 30.504 152.675 30.6 152.259 30.6H151.523C151.107 30.6 150.734 30.504 150.403 30.312C150.083 30.12 149.827 29.8373 149.635 29.464L143.443 17.448C143.475 17.832 143.502 18.2107 143.523 18.584C143.545 18.9467 143.555 19.2827 143.555 19.592V33H138.787V9.688H142.915C143.15 9.688 143.353 9.69333 143.523 9.704C143.705 9.71467 143.865 9.74667 144.003 9.8C144.142 9.85333 144.265 9.93867 144.371 10.056C144.489 10.1627 144.601 10.3173 144.707 10.52L150.707 22.344C150.921 22.7493 151.123 23.1707 151.315 23.608C151.518 24.0453 151.71 24.4933 151.891 24.952C152.073 24.4827 152.259 24.024 152.451 23.576C152.654 23.128 152.867 22.7013 153.091 22.296L159.075 10.52C159.182 10.3173 159.289 10.1627 159.395 10.056C159.513 9.93867 159.641 9.85333 159.779 9.8C159.918 9.74667 160.073 9.71467 160.243 9.704C160.425 9.69333 160.633 9.688 160.867 9.688H164.995Z" fill="white"/>
</svg>
